<?xml version="1.0" standalone="no"?>
<!DOCTYPE svg PUBLIC "-//W3C//DTD SVG 20010904//EN"
 "http://www.w3.org/TR/2001/REC-SVG-20010904/DTD/svg10.dtd">
<svg version="1.0" xmlns="http://www.w3.org/2000/svg"
 width="2048.000000pt" height="2732.000000pt" viewBox="0 0 2048.000000 2732.000000"
 preserveAspectRatio="xMidYMid meet">

<g transform="translate(0.000000,2732.000000) scale(0.100000,-0.100000)"
fill="#000000" stroke="none">
<path d="M11535 23540 c-38 -17 -115 -47 -170 -66 -122 -43 -157 -63 -272
-156 -50 -40 -127 -100 -173 -133 -48 -34 -97 -81 -119 -111 -51 -71 -188
-376 -207 -460 -11 -49 -17 -145 -21 -329 l-5 -260 41 -175 c98 -414 236 -841
326 -1005 37 -66 89 -241 105 -350 6 -38 13 -191 16 -340 7 -300 0 -380 -58
-635 -58 -258 -112 -385 -255 -605 -163 -249 -238 -315 -521 -456 -97 -49
-208 -107 -247 -129 -38 -22 -106 -54 -150 -71 -172 -68 -216 -96 -278 -173
-28 -36 -29 -38 -7 -23 14 8 54 22 90 31 132 30 337 112 462 184 68 39 171 93
230 122 105 50 231 132 297 193 80 76 223 286 326 479 78 146 151 415 186 683
15 114 6 511 -15 685 -16 133 -81 356 -165 566 -83 210 -210 605 -280 874
l-41 155 0 240 c0 173 4 259 15 310 16 74 166 403 211 462 14 18 71 65 127
105 56 39 127 93 157 118 86 73 128 97 235 134 55 18 136 48 180 66 76 31 85
32 180 27 82 -4 124 -13 230 -47 238 -77 398 -178 526 -332 55 -67 61 -88 24
-88 -39 0 -30 -26 23 -62 26 -17 85 -62 132 -98 127 -100 236 -171 357 -235
185 -99 341 -193 543 -329 107 -73 263 -174 345 -226 83 -52 186 -124 230
-159 95 -77 307 -272 301 -278 -2 -2 -27 3 -56 11 -40 12 -65 29 -113 79 -52
53 -85 75 -197 132 -74 37 -184 96 -245 130 -60 35 -209 118 -329 185 -120 67
-258 146 -305 174 -147 89 -228 131 -486 249 -266 122 -354 169 -475 250 -41
28 -93 61 -115 74 -50 29 -32 29 43 2 74 -27 335 -37 330 -12 -4 22 -69 40
-166 49 -48 4 -105 15 -128 24 -54 24 -146 42 -167 34 -29 -11 -30 -47 -3
-150 25 -102 120 -377 162 -472 13 -30 24 -56 24 -57 0 -2 -26 -6 -57 -10
l-58 -8 43 -18 c24 -10 107 -35 185 -54 78 -20 466 -143 862 -274 396 -132
792 -258 880 -281 l160 -42 0 -262 c0 -160 7 -360 19 -516 15 -212 17 -312 12
-595 -4 -187 -11 -407 -16 -490 -5 -82 -12 -589 -16 -1125 -7 -1005 -1 -1331
33 -1940 23 -400 23 -1291 0 -1897 -9 -249 -17 -641 -17 -870 0 -230 -3 -428
-6 -440 -4 -16 -14 -23 -29 -23 -35 0 -116 -70 -154 -134 -48 -80 -52 -139
-16 -246 15 -45 25 -84 22 -86 -3 -3 -90 -60 -194 -125 -231 -147 -356 -209
-874 -432 -447 -193 -534 -227 -944 -362 -397 -132 -673 -245 -1060 -436 -140
-70 -297 -122 -334 -112 -47 12 -112 -8 -150 -46 -33 -33 -39 -36 -49 -22 -9
14 -12 14 -33 -6 -20 -20 -23 -34 -31 -190 -4 -92 -15 -214 -23 -269 -39 -272
-58 -744 -48 -1206 7 -331 10 -390 24 -403 21 -22 49 -9 56 26 3 16 8 29 10
29 3 0 46 -24 96 -54 51 -29 146 -73 212 -96 66 -23 158 -58 205 -77 47 -20
209 -77 360 -129 241 -81 583 -207 820 -301 41 -17 134 -49 205 -73 130 -43
474 -198 945 -427 239 -116 285 -141 589 -321 80 -47 192 -106 250 -132 58
-26 138 -63 176 -82 39 -19 130 -59 203 -88 73 -29 144 -64 157 -78 26 -26 50
-21 42 9 -3 11 -1 19 4 19 5 0 9 -24 9 -53 0 -108 52 -115 64 -9 6 53 9 59 41
76 19 11 47 34 61 53 14 18 32 33 40 33 41 0 139 66 242 163 111 106 200 166
562 382 137 82 199 139 283 257 60 86 77 102 77 75 0 -7 6 -22 14 -33 14 -18
16 -18 33 -1 16 16 19 45 24 290 24 1009 28 1096 80 1502 6 44 13 168 15 275
4 141 9 209 21 246 15 48 15 55 -1 100 -10 27 -20 69 -23 94 -6 53 -23 70 -75
70 -21 0 -66 12 -100 26 -115 48 -350 91 -648 119 -360 33 -471 48 -656 87
-109 23 -156 37 -159 48 -2 8 -63 310 -135 669 -73 367 -143 693 -160 740
l-28 86 23 24 24 24 38 -25 c36 -24 101 -82 468 -420 270 -249 1108 -1051
1254 -1201 l54 -56 -18 -27 -18 -27 32 22 c65 47 63 50 -333 449 -617 623
-1294 1260 -1411 1327 -16 10 -15 16 19 83 58 115 48 179 -46 294 -92 113 -90
105 -79 276 6 81 13 296 16 477 4 182 11 400 16 485 5 85 15 427 24 760 23
946 47 1526 85 2070 35 516 46 819 75 2190 9 382 20 799 26 925 6 127 14 398
17 603 l7 373 34 -26 c19 -14 45 -25 58 -25 51 0 22 39 -144 198 -262 250
-313 290 -568 442 -77 46 -212 132 -300 190 -166 111 -324 205 -555 330 -145
79 -229 132 -387 250 -93 69 -102 78 -102 109 -2 75 -124 223 -269 325 -102
71 -151 94 -317 151 -131 45 -148 48 -260 52 -116 4 -122 3 -190 -27z m650
-719 c118 -86 219 -142 530 -296 182 -90 391 -202 466 -248 177 -110 600 -350
832 -471 70 -37 127 -69 127 -71 0 -6 -227 65 -410 129 -1030 362 -1317 456
-1390 456 -23 0 -30 9 -59 78 -37 84 -132 345 -155 423 -17 56 -18 56 59 0z
m2242 -1217 l83 -19 -5 -95 c-3 -52 -7 -221 -10 -375 -3 -154 -10 -365 -15
-470 -13 -261 -28 -772 -40 -1390 -17 -850 -33 -1252 -70 -1795 -11 -157 -29
-460 -39 -673 -11 -214 -22 -391 -25 -394 -3 -4 -6 27 -6 67 0 40 -8 220 -17
399 -15 276 -18 508 -17 1511 0 829 4 1250 13 1400 23 386 25 827 6 1080 -18
230 -32 738 -22 764 7 19 54 16 164 -10z m-317 -8680 c0 -12 -218 -160 -320
-217 -36 -20 -140 -69 -231 -111 -189 -85 -275 -131 -473 -258 -76 -50 -222
-139 -323 -200 -102 -60 -241 -152 -310 -204 l-126 -94 -62 0 c-41 0 -66 -5
-74 -14 -8 -10 -47 -15 -139 -18 -101 -4 -157 -13 -273 -41 -84 -21 -197 -41
-265 -47 -112 -10 -329 -42 -384 -56 -49 -13 -13 5 180 91 306 137 458 193
895 335 288 94 434 152 867 343 555 246 607 274 883 466 l130 91 12 -28 c7
-15 12 -32 13 -38z m119 -80 c21 -68 64 -264 187 -862 41 -199 83 -399 93
-444 11 -46 18 -85 16 -87 -5 -5 -142 21 -370 70 -99 21 -290 57 -425 79 -135
23 -330 61 -435 85 -245 56 -279 62 -405 75 -58 7 -134 18 -170 27 -36 9 -117
18 -180 22 -66 3 -115 10 -115 16 1 17 195 157 355 255 85 52 243 151 350 221
209 135 259 163 530 292 119 56 221 115 318 181 115 78 146 95 158 85 20 -16
44 -4 44 24 0 26 9 39 21 31 5 -3 17 -34 28 -70z m-82 -1388 c87 -19 203 -42
258 -52 120 -20 145 -29 145 -49 0 -27 -58 -17 -248 40 -100 31 -215 62 -254
70 -66 14 -97 25 -70 25 6 0 82 -15 169 -34z m676 -130 c76 -15 270 -37 430
-51 161 -14 303 -28 317 -31 l25 -6 -28 -14 c-24 -13 -33 -13 -72 1 -27 9 -81
15 -133 15 -138 0 -740 81 -753 102 -13 21 -1 26 38 17 21 -4 100 -19 176 -33z"/>
<path d="M11653 23201 c-62 -11 -76 -26 -71 -83 8 -81 72 -146 152 -155 83
-10 125 44 103 133 -10 38 -21 55 -55 81 -44 34 -55 36 -129 24z"/>
<path d="M13093 22504 c-17 -13 -17 -15 7 -34 35 -29 136 -80 158 -80 10 0 27
6 37 14 27 19 10 37 -73 77 -79 37 -105 42 -129 23z"/>
<path d="M11944 22261 c-108 -26 -219 -124 -270 -239 -19 -42 -48 -104 -64
-137 -43 -87 -49 -131 -50 -321 0 -160 2 -178 30 -275 64 -224 125 -362 236
-539 29 -47 73 -137 97 -200 24 -63 58 -151 75 -195 16 -44 33 -98 37 -120 3
-22 22 -96 41 -165 77 -281 94 -473 94 -1049 0 -547 -12 -661 -129 -1241 -61
-302 -88 -396 -188 -635 -120 -290 -258 -534 -400 -711 -106 -131 -145 -194
-219 -348 -41 -87 -67 -128 -107 -168 -65 -65 -88 -113 -143 -295 -23 -79 -65
-203 -92 -275 -28 -73 -69 -200 -92 -283 -51 -186 -78 -265 -175 -525 -101
-270 -136 -371 -179 -512 -22 -69 -69 -182 -117 -280 -45 -89 -113 -233 -151
-318 -81 -181 -84 -186 -202 -350 -124 -173 -181 -241 -349 -420 -145 -155
-219 -221 -332 -297 -33 -22 -91 -68 -129 -103 -38 -34 -128 -106 -200 -160
-72 -54 -156 -123 -186 -155 -30 -31 -104 -96 -165 -143 -60 -47 -148 -118
-195 -158 -47 -39 -123 -96 -170 -126 -47 -30 -119 -79 -160 -109 -41 -30
-109 -72 -150 -93 -41 -22 -106 -60 -145 -86 -38 -25 -89 -54 -113 -63 -48
-19 -106 -54 -171 -104 -30 -23 -48 -30 -55 -23 -18 18 -33 11 -88 -39 -43
-39 -65 -51 -113 -62 -74 -16 -110 -50 -154 -146 -17 -38 -40 -86 -51 -108
l-21 -40 6 45 c4 25 15 119 25 210 11 91 26 200 35 243 8 43 15 95 15 116 0
32 8 45 61 96 82 82 141 163 248 343 50 84 117 188 150 230 32 42 87 122 122
177 92 148 138 204 304 371 82 83 233 238 335 345 162 170 200 218 304 373
l119 178 -16 32 -16 31 0 -31 c-1 -19 -13 -45 -34 -70 -18 -21 -71 -88 -117
-148 -56 -73 -211 -236 -456 -480 -366 -366 -372 -373 -468 -519 -53 -82 -124
-185 -157 -229 -33 -44 -97 -145 -144 -223 -84 -143 -180 -279 -229 -324 -25
-24 -25 -24 -63 -6 -21 10 -67 29 -103 41 l-65 23 -36 87 c-78 190 -180 341
-257 381 -27 14 -42 18 -42 10 1 -25 41 -95 104 -182 36 -49 89 -136 118 -192
l53 -102 -23 -17 c-18 -12 -22 -22 -18 -40 7 -25 -19 -357 -34 -439 -5 -27
-14 -149 -20 -270 -6 -121 -19 -274 -30 -341 -11 -66 -24 -184 -30 -261 -5
-77 -21 -193 -35 -257 -14 -65 -30 -174 -35 -244 -6 -70 -19 -181 -30 -247
-10 -66 -22 -160 -25 -210 -3 -49 -15 -137 -25 -195 -26 -141 -50 -322 -50
-370 0 -53 -9 -74 -26 -59 -40 33 -48 -36 -30 -247 12 -132 21 -184 38 -225
23 -53 23 -58 18 -389 -7 -582 -5 -2092 4 -2702 9 -581 3 -853 -25 -1145 -5
-56 -14 -187 -19 -290 -6 -103 -16 -224 -24 -268 -16 -91 -13 -105 20 -105 51
0 69 75 84 340 5 91 16 244 24 340 35 414 39 547 32 1019 -3 256 -11 543 -17
636 -5 94 -12 667 -13 1275 -2 608 -7 1129 -11 1158 -9 61 -7 62 80 31 48 -17
72 -20 120 -14 33 3 70 13 82 21 l23 14 -5 -87 c-3 -49 -7 -150 -10 -225 -2
-75 -14 -192 -25 -260 -31 -189 -40 -284 -50 -528 -6 -124 -14 -246 -20 -272
-19 -94 -29 -482 -29 -1073 0 -330 -5 -656 -11 -725 -13 -164 -13 -1393 0
-1484 12 -80 24 -99 58 -93 18 3 56 -17 150 -81 70 -46 134 -91 142 -100 17
-17 22 -19 -79 23 -43 18 -90 29 -142 32 -64 5 -80 9 -84 24 -9 29 -45 69 -62
69 -11 0 -13 -5 -8 -17 4 -10 20 -50 35 -89 14 -38 56 -122 92 -185 36 -63 78
-139 93 -169 l27 -55 -114 116 c-62 64 -160 152 -218 196 -119 90 -140 103
-170 103 l-22 0 20 -33 19 -33 -31 -22 c-18 -12 -37 -22 -42 -22 -6 0 -49 -23
-95 -51 -94 -58 -149 -84 -149 -70 0 5 36 48 81 96 81 87 109 133 109 178 0
55 -29 42 -81 -34 -22 -33 -51 -66 -65 -75 -13 -9 -48 -46 -76 -83 -29 -36
-74 -87 -101 -112 -50 -48 -57 -72 -25 -93 13 -8 30 -6 65 6 26 9 66 19 88 23
21 4 53 14 70 22 56 29 260 166 273 184 11 17 22 10 125 -72 61 -50 159 -142
217 -204 58 -63 120 -126 139 -140 72 -52 125 -21 101 59 -13 43 -108 217
-185 337 -26 39 -44 74 -41 77 13 12 108 -19 212 -69 129 -62 204 -76 223 -40
9 16 9 27 -1 45 -42 80 -372 294 -438 284 l-27 -4 -7 165 c-4 90 -4 271 -1
400 9 378 16 1068 18 1901 2 531 7 803 15 865 7 50 16 201 22 337 6 137 20
319 31 405 17 126 21 217 23 448 l1 290 43 77 c42 77 42 77 42 182 l0 105 -47
88 -47 88 -4 220 c-4 234 8 433 38 660 10 77 23 201 30 275 6 74 19 205 30
290 11 85 24 207 30 270 9 92 17 124 38 160 68 119 103 192 127 265 38 115 42
119 120 134 81 14 116 31 138 65 14 21 22 23 55 19 35 -5 48 0 102 37 34 23
101 60 148 82 46 21 110 56 141 77 31 21 92 56 136 79 44 22 114 64 155 94 41
29 120 83 175 119 55 36 138 98 185 137 46 40 87 72 91 72 4 0 11 -10 15 -22
11 -35 20 -189 12 -194 -27 -17 20 -41 97 -50 l55 -7 0 -71 c0 -39 -4 -98 -10
-131 -5 -33 -16 -136 -25 -230 -17 -192 -14 -172 -66 -400 -21 -93 -52 -276
-69 -405 -18 -137 -45 -295 -66 -379 -37 -151 -48 -232 -59 -446 -4 -86 -15
-162 -31 -225 -13 -52 -29 -149 -35 -215 -8 -83 -18 -137 -34 -175 -13 -30
-28 -93 -35 -140 -6 -47 -18 -110 -26 -141 -26 -105 -11 -315 30 -414 31 -74
46 -227 46 -490 0 -160 6 -293 15 -370 9 -69 15 -204 15 -320 1 -110 5 -231
11 -270 5 -38 14 -194 19 -345 5 -151 14 -396 19 -545 5 -148 15 -317 21 -375
9 -74 10 -199 6 -420 -13 -557 -25 -950 -35 -1140 -21 -378 -29 -663 -20 -686
9 -26 24 -31 36 -12 13 22 37 337 48 658 3 80 10 179 15 220 13 107 33 998 27
1225 -2 105 -10 296 -16 425 -6 129 -16 381 -21 560 -5 179 -16 375 -25 435
-8 64 -14 190 -15 301 0 145 -5 219 -20 305 -15 89 -20 160 -20 324 0 185 -7
282 -26 364 l-5 24 30 -26 c57 -47 101 -47 229 5 41 16 75 28 77 26 4 -4 -7
-187 -24 -393 -24 -295 -31 -652 -33 -1625 -1 -564 -5 -1106 -9 -1205 -5 -99
-13 -335 -19 -525 -6 -190 -14 -383 -16 -429 -7 -112 40 -426 73 -494 23 -46
128 -141 316 -285 97 -75 173 -138 169 -140 -17 -5 -238 47 -307 73 -159 59
-180 65 -232 64 -29 -1 -53 -3 -53 -4 0 -9 93 -59 184 -99 205 -91 475 -142
534 -100 23 16 28 44 13 73 -5 9 -61 55 -123 102 -297 223 -387 292 -432 333
-42 38 -48 48 -42 71 4 14 -3 98 -14 186 -14 105 -20 186 -16 237 3 42 9 230
15 417 5 187 15 466 21 620 6 154 16 780 22 1390 6 611 12 1148 13 1195 2 47
6 196 9 332 4 215 7 251 23 275 29 43 22 217 -11 289 -15 33 -31 54 -41 54
-15 0 -16 44 -12 513 4 474 6 519 26 612 12 55 28 165 37 245 33 317 69 512
128 704 19 61 44 165 56 231 11 66 34 163 50 215 16 52 44 158 64 236 19 78
44 156 55 175 33 53 27 80 -25 129 -90 83 -235 126 -398 118 l-69 -3 1 60 c1
33 -4 87 -12 120 l-15 60 32 25 c18 13 73 63 122 110 50 48 144 126 210 175
66 49 154 118 195 154 41 36 118 96 170 133 109 77 163 127 354 328 129 135
137 141 112 93 -14 -28 -58 -94 -97 -145 -76 -99 -111 -163 -159 -283 -16 -41
-49 -114 -73 -162 -50 -101 -66 -142 -101 -270 -14 -50 -44 -135 -67 -188 -40
-95 -99 -338 -99 -412 l0 -32 34 20 c41 24 65 77 95 203 12 49 39 128 60 175
21 48 51 127 66 176 15 50 33 113 42 140 8 28 35 91 59 142 25 51 66 145 93
210 28 70 72 154 108 208 70 104 113 187 138 265 10 30 27 72 38 92 15 28 17
40 9 50 -8 10 -1 26 30 67 89 116 167 243 208 338 23 54 89 196 147 316 57
121 120 269 140 330 56 180 115 355 207 615 48 134 104 317 127 405 22 89 65
236 94 327 30 91 70 230 90 309 19 79 46 167 60 195 14 28 23 40 20 26 -3 -14
-12 -65 -21 -115 -8 -49 -18 -99 -21 -110 -12 -40 66 66 82 112 35 98 200 431
251 508 30 44 86 118 125 165 130 155 303 471 418 763 86 218 123 346 156 542
13 83 36 206 50 272 14 67 37 234 51 370 24 238 25 264 19 663 -3 228 -10 467
-15 531 -15 179 -54 391 -100 534 -23 72 -48 167 -56 213 -18 100 -97 358
-129 423 -13 25 -51 88 -85 140 -61 95 -125 243 -190 444 -39 117 -49 248 -31
403 8 75 17 106 44 155 19 34 45 89 58 121 32 80 105 158 182 196 58 28 70 30
200 34 115 3 137 2 137 -11 0 -19 34 -13 37 7 5 29 -14 40 -98 55 -88 15 -193
18 -245 6z m-5084 -10891 c6 -11 10 -26 9 -33 -3 -26 2 -37 16 -37 9 0 17 14
21 39 l6 38 71 -18 c38 -11 72 -21 75 -23 2 -3 -1 -19 -7 -36 -9 -27 -8 -31 4
-26 19 7 20 11 -15 -118 -16 -61 -38 -176 -49 -256 -12 -80 -35 -219 -52 -310
-17 -91 -35 -221 -40 -290 -4 -69 -15 -170 -23 -225 -8 -55 -25 -194 -36 -310
-11 -115 -27 -257 -35 -315 -25 -181 -35 -338 -35 -545 0 -242 8 -297 60 -409
36 -78 40 -94 40 -168 0 -76 -3 -86 -38 -147 -21 -36 -47 -84 -57 -106 l-20
-40 -60 1 c-85 1 -157 24 -172 55 -6 13 -17 73 -23 133 -6 59 -15 131 -20 158
-13 68 -13 78 5 78 24 0 35 33 60 192 14 84 36 212 50 283 13 72 27 173 30
225 3 52 15 140 26 195 10 55 19 134 19 176 0 70 17 180 54 354 8 39 17 122
21 185 3 63 15 176 25 250 11 81 21 227 25 365 3 127 9 255 14 285 5 30 10
137 10 238 1 153 3 182 16 182 8 0 19 -9 25 -20z m2174 -24 c37 -14 81 -35 97
-47 26 -18 28 -23 15 -33 -20 -14 -69 -124 -91 -201 -9 -33 -35 -116 -57 -185
-22 -68 -53 -190 -69 -270 -16 -80 -42 -185 -59 -235 -53 -156 -89 -356 -130
-715 -11 -96 -27 -209 -35 -250 -12 -55 -19 -184 -26 -480 -14 -581 -5 -740
45 -740 7 0 18 10 24 23 8 17 11 -2 11 -91 1 -107 0 -114 -24 -137 -13 -14
-31 -25 -40 -25 -9 0 -33 -9 -53 -19 -21 -11 -55 -23 -76 -26 -33 -7 -41 -4
-68 21 -44 42 -68 96 -89 198 -23 110 -24 195 -4 262 7 27 21 103 29 169 8 66
19 133 25 148 6 15 18 85 27 155 8 69 26 168 40 220 14 55 24 122 24 162 0
120 20 323 41 410 40 170 50 229 79 455 16 127 47 316 69 421 25 119 44 244
51 330 5 77 15 196 21 267 7 70 8 155 5 189 l-7 61 79 -6 c47 -4 107 -17 146
-31z"/>
<path d="M9426 18150 c-16 -5 -59 -30 -96 -55 -36 -25 -129 -72 -207 -104 -79
-33 -203 -96 -278 -141 -90 -54 -188 -103 -295 -145 -291 -116 -418 -191 -748
-440 -88 -66 -222 -164 -299 -218 -77 -53 -195 -147 -264 -208 -68 -60 -187
-158 -264 -217 -77 -59 -212 -177 -300 -263 -88 -85 -212 -199 -275 -253 -63
-54 -203 -187 -310 -295 -206 -208 -537 -521 -724 -682 -152 -132 -238 -249
-318 -431 -104 -240 -154 -423 -223 -827 -25 -145 -49 -280 -55 -300 -5 -20
-21 -92 -35 -160 -28 -139 -26 -217 6 -263 22 -31 58 -131 123 -338 55 -177
59 -192 91 -353 32 -157 65 -258 118 -360 49 -95 70 -111 138 -105 64 7 104
42 123 112 52 182 63 384 32 586 -8 58 -21 164 -27 235 -11 124 -19 158 -36
141 -8 -8 -9 -262 -3 -546 4 -146 2 -163 -27 -285 -43 -178 -72 -198 -128 -87
-45 87 -70 170 -111 356 -42 196 -138 516 -194 651 -24 55 -44 111 -47 125 -2
14 14 97 36 185 22 88 56 259 76 380 65 401 133 647 239 870 66 138 119 209
231 310 48 44 160 148 249 231 88 83 208 193 266 245 58 51 184 174 280 273
96 98 216 213 265 255 50 42 176 157 280 256 105 99 245 222 312 273 67 51
175 141 240 199 122 110 230 193 392 304 52 35 177 127 278 204 224 172 361
251 619 359 133 55 242 109 328 161 71 43 186 104 255 134 69 31 142 65 161
75 57 31 193 168 163 165 -4 0 -21 -5 -37 -9z"/>
<path d="M5703 13205 c6 -98 63 -445 88 -534 25 -94 97 -264 153 -361 83 -146
248 -396 289 -437 35 -37 47 -43 82 -43 75 0 109 45 148 197 21 83 22 108 22
481 0 382 -1 394 -20 408 -19 14 -20 13 -27 -28 -4 -24 -12 -198 -17 -388 -12
-390 -24 -488 -67 -572 -33 -64 -61 -37 -220 212 -197 310 -262 468 -314 760
-36 208 -60 293 -95 340 l-27 35 5 -70z"/>
<path d="M4666 13088 c-16 -28 -32 -84 -46 -163 -11 -66 -28 -147 -36 -180 -9
-32 -34 -147 -56 -255 l-41 -195 -4 -288 c-7 -406 11 -591 75 -777 25 -71 56
-133 76 -149 14 -11 13 -16 -5 -40 -19 -26 -21 -50 -30 -422 -19 -811 -22
-929 -26 -926 -12 12 -46 292 -63 522 -5 77 -12 376 -14 665 -3 368 -8 526
-15 528 -19 6 -41 -63 -52 -168 -17 -154 -6 -1034 15 -1225 29 -261 146 -1056
161 -1092 11 -27 20 -34 37 -31 35 5 41 59 31 283 -4 110 -7 553 -5 985 1 432
2 808 2 835 l0 50 63 -3 c58 -3 67 -1 115 32 l52 35 16 -37 c9 -20 26 -67 39
-103 29 -84 41 -107 74 -142 54 -59 82 -56 122 10 45 76 124 193 130 193 8 0
19 -38 19 -67 0 -13 -20 -64 -44 -115 -25 -51 -56 -131 -71 -178 -49 -157 -67
-200 -126 -291 -66 -103 -79 -138 -115 -299 -14 -63 -29 -121 -33 -128 -9 -17
-25 52 -51 224 -33 226 -49 275 -100 313 l-30 22 0 -38 c0 -21 7 -74 15 -118
8 -44 26 -150 40 -235 33 -193 62 -318 81 -347 21 -32 67 -31 93 3 12 15 21
34 21 42 0 27 89 387 105 426 9 21 28 57 43 80 14 22 38 64 54 91 23 42 28 46
28 25 0 -31 74 -255 118 -358 50 -115 132 -225 194 -258 69 -36 163 -3 226 79
74 97 183 272 248 400 36 70 70 127 77 127 8 0 7 -4 -3 -11 -12 -8 -10 -9 10
-7 23 3 28 -5 77 -145 38 -106 59 -186 76 -289 l23 -141 -65 -90 c-256 -349
-401 -535 -439 -564 -81 -61 -143 -43 -225 65 -78 102 -133 212 -238 477 -56
143 -110 270 -119 282 l-18 23 -12 -30 c-8 -18 -10 -44 -5 -67 11 -60 144
-430 185 -518 72 -152 175 -288 253 -335 43 -27 134 -27 186 -1 57 30 153 139
273 313 96 139 234 350 240 371 2 4 17 2 35 -5 39 -15 64 -3 138 64 79 71 121
160 117 242 -2 29 -2 29 -22 11 -11 -10 -40 -54 -63 -98 -39 -74 -105 -147
-132 -147 -14 0 -31 65 -46 175 -11 88 -32 157 -100 324 -33 82 -97 171 -123
171 -26 0 -86 -71 -137 -162 -66 -118 -223 -350 -270 -400 -40 -42 -81 -50
-123 -23 -52 34 -132 171 -191 325 -44 116 -77 180 -109 209 -14 14 -26 33
-26 43 0 27 69 266 92 321 l21 49 24 -31 c32 -40 67 -40 122 -1 49 36 78 80
146 221 27 57 51 106 53 109 5 7 19 -18 83 -160 179 -397 220 -450 343 -450
83 0 136 28 226 119 161 162 293 406 376 694 37 130 42 177 19 177 -19 0 -23
-8 -95 -200 -97 -256 -163 -374 -305 -545 -80 -96 -134 -141 -188 -156 -87
-23 -113 9 -268 328 -60 125 -124 249 -140 275 l-31 48 22 67 c13 38 38 106
58 153 45 110 163 456 169 496 5 34 -14 57 -23 27 -3 -10 -34 -79 -69 -153
-35 -74 -78 -170 -95 -213 -16 -43 -41 -99 -54 -125 -13 -26 -31 -72 -41 -102
-24 -73 -23 -73 -50 -56 l-23 15 13 -57 c19 -79 6 -131 -65 -277 -58 -119
-111 -188 -130 -169 -5 5 -29 86 -54 179 -43 161 -71 286 -152 680 -37 178
-59 233 -107 269 -27 20 -29 20 -41 4 -7 -9 -20 -79 -30 -155 -25 -203 -43
-305 -76 -431 -33 -126 -65 -194 -125 -260 -34 -37 -47 -45 -80 -46 l-40 -1
-37 74 c-76 154 -97 293 -104 696 l-6 310 61 305 c63 312 83 454 79 554 -1 31
-3 56 -5 56 -1 0 -13 -19 -27 -42z m459 -1297 c9 -62 27 -157 40 -210 13 -53
33 -148 44 -211 12 -63 31 -152 42 -197 l21 -82 -50 -57 c-28 -31 -68 -81 -89
-110 -21 -29 -41 -53 -44 -54 -8 0 -59 116 -59 133 0 18 -66 153 -78 161 -7 4
2 34 24 79 56 119 114 431 114 616 0 94 15 65 35 -68z"/>
<path d="M8400 3165 c-3 -6 -28 -27 -57 -48 -70 -51 -99 -88 -138 -173 -27
-59 -38 -73 -65 -82 -25 -9 -31 -16 -28 -34 3 -22 6 -23 113 -22 102 1 116 3
201 37 50 21 98 37 105 37 8 0 29 9 47 20 39 24 44 68 11 101 -26 26 -47 12
-30 -20 9 -17 8 -22 -8 -31 -11 -5 -27 -10 -35 -10 -9 0 -63 -16 -120 -35 -91
-30 -156 -43 -156 -31 0 2 11 28 24 59 16 35 46 76 86 114 55 53 61 63 58 94
-2 19 -5 29 -8 24z"/>
</g>
</svg>
